<svg height="78" viewBox="0 0 361 78" width="361" xmlns="http://www.w3.org/2000/svg"><g fill="none" fill-rule="evenodd"><path d="m0 5 14.7066846 6.650955v53.3796697h23.363811v12.1603918h-38.0704956zm95.5606992 41.3890573c0-5.284698-1.529758-9.4393818-4.58932-12.464176s-6.6405865-4.5371686-10.743181-4.5371686c-4.1025944 0-7.6662353 1.4949908-10.6910295 4.4850172-3.0247943 2.9900265-4.5371687 7.1273267-4.5371687 12.4120246 0 5.284698 1.529758 9.4567654 4.58932 12.5163274 3.059562 3.0595619 6.6232029 4.58932 10.6910296 4.58932s7.6314676-1.5123745 10.6910296-4.5371687 4.58932-7.179478 4.58932-12.4641759zm-45.5606992.62063c0-8.6919374 2.5727749-15.8018356 7.7184018-21.3299078 5.145627-5.5280722 11.6818659-8.2920668 19.6089128-8.2920668 7.927047 0 13.9765447 3.2681194 18.1486746 9.8044564v-8.9700346l14.6023818 7.0703946v51.2950731l-14.6023818-6.7358061v-3.5461042c-4.3807364 7.0230855-10.4650014 10.5345755-18.2529773 10.5345755s-14.272064-2.7987619-19.4524587-8.3963696-7.7705532-12.7422731-7.7705532-21.4342105zm188.560699-.62063c0-5.284698-1.529758-9.4393818-4.58932-12.464176s-6.640586-4.5371686-10.743181-4.5371686c-4.102594 0-7.666235 1.4949908-10.691029 4.4850172-3.024795 2.9900265-4.537169 7.1273267-4.537169 12.4120246 0 5.284698 1.529758 9.4567654 4.58932 12.5163274 3.059562 3.0595619 6.623203 4.58932 10.69103 4.58932 4.067826 0 7.631467-1.5123745 10.691029-4.5371687s4.58932-7.179478 4.58932-12.4641759zm-45.560699.62063c0-8.6919374 2.572775-15.8018356 7.718402-21.3299078s11.681866-8.2920668 19.608913-8.2920668 13.976544 3.2681194 18.148674 9.8044564v-8.9700346l14.602382 7.0703946v51.2950731l-14.602382-6.7358061v-3.5461042c-4.380736 7.0230855-10.465001 10.5345755-18.252977 10.5345755s-14.272064-2.7987619-19.452459-8.3963696c-5.180394-5.5976077-7.770553-12.7422731-7.770553-21.4342105zm-70.11141-27.6023819h15.645409l14.91529 45.1630811 14.810988-45.1630811h15.645409l-21.277757 57.7837111h-18.461582z" fill="#fff"/><g fill="#eb3670" transform="translate(277)"><path d="m18.104986 3.104986h15v15h-15z" transform="matrix(.69465837 .7193398 -.7193398 .69465837 15.446857 -15.180542)"/><path d="m52.104986 3.104986h15v15h-15z" transform="matrix(.69465837 .7193398 -.7193398 .69465837 25.828472 -39.638095)"/><path d="m.5833383 76.7839571 18.5488868.3209893 19.7254001-27.4774944 7.1141448 13.8233595 6.8509066-6.5138007 14.2155306 20.0235576 16.917079-.2075015-40.5876934-58.7235919z"/></g></g></svg>